<?xml version="1.0" encoding="UTF-8"?>
<svg width="212px" height="80px" viewBox="0 0 212 80" version="1.1" xmlns="http://www.w3.org/2000/svg" xmlns:xlink="http://www.w3.org/1999/xlink">
    <!-- Generator: Sketch 52.6 (67491) - http://www.bohemiancoding.com/sketch -->
    <title>VFXF-R_Logo-WHITE</title>
    <desc>Created with Sketch.</desc>
    <g id="Page-1" stroke="none" stroke-width="1" fill="none" fill-rule="evenodd">
        <path d="M208,43.2 C205.790861,43.2 204,41.409139 204,39.2 C204,36.990861 205.790861,35.2 208,35.2 C210.209139,35.2 212,36.990861 212,39.2 C212,41.409139 210.209139,43.2 208,43.2 Z M208.040609,42.4284264 C209.801192,42.4284264 211.228426,41.001192 211.228426,39.2406091 C211.228426,37.4800263 209.801192,36.0527919 208.040609,36.0527919 C206.280026,36.0527919 204.852792,37.4800263 204.852792,39.2406091 C204.852792,41.001192 206.280026,42.4284264 208.040609,42.4284264 Z M207.801015,38.8954315 C208.024365,38.8954315 208.186802,38.8507614 208.284264,38.7654822 C208.381726,38.684264 208.434518,38.5461929 208.434518,38.351269 C208.434518,38.1604061 208.381726,38.0263959 208.284264,37.9411168 C208.186802,37.8598985 208.024365,37.8192893 207.801015,37.8192893 L207.346193,37.8192893 L207.346193,38.8954315 L207.801015,38.8954315 Z M207.346193,39.6385787 L207.346193,41.222335 L206.26599,41.222335 L206.26599,37.035533 L207.914721,37.035533 C208.467005,37.035533 208.869036,37.128934 209.124873,37.315736 C209.384772,37.4984772 209.51066,37.7908629 209.51066,38.1928934 C209.51066,38.4690355 209.445685,38.6964467 209.311675,38.8751269 C209.177665,39.0497462 208.97868,39.1837563 208.706599,39.2649746 C208.856853,39.3015228 208.986802,39.3786802 209.104569,39.4964467 C209.222335,39.6142132 209.340102,39.7928934 209.457868,40.0365482 L210.046701,41.222335 L208.897462,41.222335 L208.385787,40.1827411 C208.284264,39.9756345 208.17868,39.8294416 208.073096,39.7563452 C207.967513,39.6791878 207.825381,39.6385787 207.650761,39.6385787 L207.346193,39.6385787 Z M89.2603482,57.0455446 L89.2603482,40.6173919 L87,40.2870571 L87,39.170211 L100.535804,39.170211 L100.799694,43.4281352 L99.3862775,43.4281352 L98.6788451,40.4340106 L91.3940291,40.4340106 L91.3940291,47.9838988 L96.5588243,47.9838988 L96.9864298,45.8373437 L98.1864572,45.8373437 L98.1864572,51.5561092 L96.9864298,51.5561092 L96.5588243,49.3205542 L91.3940291,49.3205542 L91.3940291,57.1506888 L95.434342,57.1506888 L95.434342,58.3877884 L87.15109,58.3877884 L87.15109,57.2773585 L89.2603482,57.0455446 Z M104.984887,38.380388 C105.251675,38.0407393 105.623605,37.8683277 106.103368,37.8683277 L106.115579,37.8683277 C106.527661,37.8683277 106.855092,38.0192137 107.094973,38.318502 C107.333406,38.6175833 107.454692,38.9653041 107.454692,39.3585598 C107.454692,39.8571666 107.321195,40.2640827 107.057097,40.5834477 C106.791759,40.9055034 106.406169,41.0630127 105.901155,41.0630127 L105.888944,41.0630127 C105.492798,41.0630127 105.177372,40.9228895 104.94163,40.6414012 C104.704439,40.3597059 104.587293,40.0119851 104.587293,39.6011364 C104.5875,39.1271598 104.72079,38.7214855 104.984887,38.380388 Z M105.079267,57.0739004 L105.079267,45.7483437 L103.04721,45.292995 L103.04721,44.1326838 L106.595135,43.7272165 L106.658468,43.7272165 L107.16224,44.1326838 L107.16224,57.0873539 L109.424657,57.2759097 L109.424657,58.3877884 L102.807328,58.3877884 L102.807328,57.2759097 L105.079267,57.0739004 Z M112.897037,57.1157097 L112.897037,46.1418064 L110.889403,45.6351275 L110.889403,44.4737813 L114.183786,44.0695559 L114.247327,44.0695559 L114.751305,44.4737813 L114.751305,45.6541693 L114.727089,46.3142179 C115.123235,45.9613227 115.629697,45.6082205 116.24958,45.2551183 C116.866566,44.9049137 117.524118,44.6126627 118.224927,44.3794 C118.922839,44.1477931 119.576251,44.0316791 120.181439,44.0316791 C121.275497,44.0316791 122.121601,44.2419674 122.719959,44.6623371 C123.316868,45.080223 123.730606,45.7133646 123.962416,46.5609341 C124.194018,47.4087106 124.31013,48.5458405 124.31013,49.9688051 L124.31013,57.1279213 L126.254431,57.3110957 L126.254431,58.3877884 L120.446985,58.3877884 L120.446985,57.3110957 L122.22695,57.1279213 L122.22695,49.9795679 C122.22695,48.9204682 122.153061,48.0875941 122.00611,47.4801175 C121.860608,46.8736759 121.574986,46.4168784 121.154625,46.1082761 C120.731366,45.8011228 120.11438,45.6463042 119.297666,45.6463042 C118.607826,45.6463042 117.865416,45.8201646 117.068985,46.1637459 C116.274003,46.5058783 115.577333,46.9127945 114.980424,47.3791129 L114.980424,57.1159167 L116.861391,57.3110957 L116.861391,58.3877884 L111.153707,58.3877884 L111.153707,57.3110957 L112.897037,57.1157097 Z M139.019675,57.0360237 L139.019675,57.0362307 L140.635303,57.0362307 L140.635303,57.9957746 C139.624656,58.2650512 138.816428,58.3985512 138.212689,58.3985512 C137.925618,58.3985512 137.711401,58.3770256 137.567348,58.3312837 C137.425779,58.2855419 137.315255,58.1843303 137.239917,58.0322024 C137.164372,57.8744862 137.125254,57.6331514 137.125254,57.3071632 L137.125254,56.3639704 C136.746701,56.6926494 136.361318,56.9917307 135.970554,57.2665957 C135.57979,57.5414607 135.08409,57.7974909 134.485732,58.0386187 C133.890065,58.2797466 133.26211,58.3983442 132.604558,58.3983442 C131.805437,58.3983442 131.080412,58.2528396 130.426999,57.9591397 C129.775035,57.6681305 129.254706,57.2169213 128.86953,56.6090308 C128.481663,56.0001054 128.287523,55.2481592 128.287523,54.3507083 C128.287523,53.2202017 128.694431,52.3012253 129.505557,51.5925371 C130.319373,50.8850908 131.37452,50.3703399 132.676171,50.0524237 C133.976373,49.7330587 135.404691,49.5738936 136.962367,49.5738936 L136.962367,48.8571334 C136.962367,48.0728987 136.872127,47.4571431 136.690198,47.0096596 C136.509718,46.562383 136.195533,46.233497 135.749714,46.0246576 C135.305137,45.8158181 134.671801,45.7106739 133.855294,45.7106739 C132.408141,45.7106739 130.893515,46.127111 129.308933,46.9624689 L129.296721,46.9624689 L128.729616,45.9664971 C128.92355,45.7820809 129.32756,45.532881 129.942062,45.2201392 C130.556357,44.9076044 131.257166,44.6312906 132.042627,44.3928534 C132.830986,44.1517256 133.585401,44.0316791 134.310427,44.0316791 C135.488101,44.0316791 136.417822,44.1893954 137.099797,44.5046209 C137.7826,44.8198463 138.273332,45.3267322 138.570958,46.0219669 C138.870034,46.7198922 139.019675,47.6589454 139.019675,48.8393334 L139.019675,57.0360237 Z M136.962367,55.3706894 L136.962574,55.3706894 L136.962574,50.7743583 C135.563853,50.7743583 134.388869,50.9171722 133.432035,51.2056977 C132.476856,51.4925674 131.763835,51.895551 131.292352,52.410095 C130.820868,52.924846 130.586368,53.5232156 130.586368,54.2008572 C130.586368,55.1887569 130.838461,55.9080008 131.343474,56.3608658 C131.847452,56.8110401 132.526529,57.0360237 133.375324,57.0360237 C133.872472,57.0360237 134.456135,56.8731331 135.12445,56.545696 C135.794006,56.2195007 136.405818,55.8274869 136.962367,55.3706894 Z M144.171017,57.1157097 L144.171017,46.1418064 L142.163382,45.6351275 L142.163382,44.4737813 L145.459215,44.0695559 L145.522548,44.0695559 L146.026734,44.4737813 L146.026734,45.6541693 L146.002518,46.3142179 C146.397215,45.9613227 146.903884,45.6082205 147.523767,45.2551183 C148.143443,44.9049137 148.801202,44.6126627 149.499114,44.3794 C150.197025,44.1477931 150.851887,44.0316791 151.457075,44.0316791 C152.550925,44.0316791 153.398685,44.2419674 153.994145,44.6623371 C154.592503,45.080223 155.007483,45.7133646 155.239293,46.5609341 C155.471102,47.4087106 155.587007,48.5458405 155.587007,49.9688051 L155.587007,57.1279213 L157.530066,57.3110957 L157.530066,58.3877884 L151.722621,58.3877884 L151.722621,57.3110957 L153.502585,57.1279213 L153.502585,49.9795679 C153.502585,48.9204682 153.428489,48.0875941 153.280297,47.4801175 C153.134795,46.8736759 152.851863,46.4168784 152.428811,46.1082761 C152.00845,45.8011228 151.391257,45.6463042 150.57475,45.6463042 C149.882013,45.6463042 149.141051,45.8201646 148.345862,46.1637459 C147.54819,46.5058783 146.852968,46.9127945 146.254611,47.3791129 L146.254611,57.1159167 L148.137027,57.3110957 L148.137027,58.3877884 L142.429342,58.3877884 L142.429342,57.3110957 L144.171017,57.1157097 Z M168.287262,44.2771535 C168.935293,44.441493 169.486461,44.6192859 169.941801,44.8134301 L169.828587,48.3249963 L168.539354,48.3249963 L167.996258,45.9965087 C167.879112,45.5032833 167.139185,45.2567741 165.775649,45.2567741 C164.882355,45.2567741 164.104966,45.4765833 163.437893,45.9182715 C162.773511,46.3603737 162.26146,46.9935154 161.89781,47.8236988 C161.536642,48.6495358 161.354713,49.6264657 161.354713,50.7476583 C161.354713,52.1019067 161.558167,53.2377947 161.961143,54.1567712 C162.363912,55.0757476 162.916529,55.7602195 163.614441,56.2103937 C164.315043,56.660361 165.110025,56.8841028 166.002077,56.8841028 C166.734967,56.8841028 167.443848,56.7750261 168.128307,56.5525262 C168.815249,56.3316821 169.373247,56.0700636 169.801681,55.7722241 L170.219558,56.5767425 C169.720961,57.07804 169.033812,57.5064817 168.155213,57.8622746 C167.275373,58.2205512 166.406294,58.4 165.54653,58.4 C164.184443,58.4 163.018773,58.0928466 162.049934,57.476884 C161.081095,56.8623703 160.350896,56.0243217 159.859129,54.9612895 C159.367155,53.900741 159.120651,52.7056577 159.120651,51.3783163 C159.120651,50.0443516 159.391578,48.8194636 159.935916,47.7051012 C160.477356,46.5921876 161.288482,45.6988763 162.363705,45.0317904 C163.441825,44.3661535 164.756723,44.0318861 166.305085,44.0318861 C166.977539,44.0316791 167.639437,44.112607 168.287262,44.2771535 Z M174.695756,38.380388 C174.959646,38.0407393 175.331576,37.8683277 175.811545,37.8683277 L175.824791,37.8683277 C176.237081,37.8683277 176.56327,38.0192137 176.803151,38.318502 C177.043032,38.6175833 177.164111,38.9653041 177.164111,39.3585598 C177.164111,39.8571666 177.030821,40.2640827 176.765275,40.5834477 C176.501385,40.9055034 176.115795,41.0630127 175.612023,41.0630127 L175.59857,41.0630127 C175.202425,41.0630127 174.885963,40.9228895 174.651463,40.6414012 C174.415515,40.3597059 174.296919,40.0119851 174.296919,39.6011364 C174.296919,39.1271598 174.428968,38.7214855 174.695756,38.380388 Z M174.789928,57.0739004 L174.789928,45.7483437 L172.755387,45.292995 L172.755387,44.1326838 L176.304761,43.7272165 L176.367888,43.7272165 L176.873315,44.1326838 L176.873315,57.0873539 L179.132835,57.2759097 L179.132835,58.3877884 L172.518403,58.3877884 L172.518403,57.2759097 L174.789928,57.0739004 Z M191.847164,57.0360237 L191.847164,57.0362307 L193.464241,57.0362307 L193.464241,57.9957746 C192.453594,58.2650512 191.646608,58.3985512 191.040178,58.3985512 C190.751865,58.3985512 190.53889,58.3770256 190.396079,58.3312837 C190.253061,58.2855419 190.142745,58.1843303 190.0672,58.0322024 C189.991861,57.8744862 189.953985,57.6331514 189.953985,57.3071632 L189.953985,56.3639704 C189.575433,56.6926494 189.188808,56.9917307 188.798043,57.2665957 C188.407279,57.5414607 187.911373,57.7974909 187.314463,58.0386187 C186.717554,58.2797466 186.089599,58.3983442 185.433289,58.3983442 C184.633133,58.3983442 183.909557,58.2528396 183.254695,57.9591397 C182.602524,57.6681305 182.082402,57.2169213 181.697019,56.6090308 C181.308945,56.0001054 181.115012,55.2481592 181.115012,54.3507083 C181.115012,53.2202017 181.52192,52.3012253 182.334495,51.5925371 C183.147069,50.8850908 184.203458,50.3703399 185.50366,50.0524237 C186.803862,49.7330587 188.232387,49.5738936 189.789856,49.5738936 L189.789856,48.8571334 C189.789856,48.0728987 189.698167,47.4571431 189.518929,47.0096596 C189.337,46.562383 189.024471,46.233497 188.577203,46.0246576 C188.131177,45.8158181 187.500532,45.7106739 186.682576,45.7106739 C185.23563,45.7106739 183.721211,46.127111 182.139113,46.9624689 L182.125659,46.9624689 L181.557106,45.9664971 C181.751039,45.7820809 182.155256,45.532881 182.769758,45.2201392 C183.384053,44.9076044 184.084862,44.6312906 184.871772,44.3928534 C185.658682,44.1517256 186.414546,44.0316791 187.138123,44.0316791 C188.317039,44.0316791 189.245518,44.1893954 189.928528,44.5046209 C190.611538,44.8198463 191.102063,45.3267322 191.399896,46.0219669 C191.697523,46.7198922 191.847164,47.6589454 191.847164,48.8393334 L191.847164,57.0360237 Z M189.789649,55.3706894 L189.789856,55.3706894 L189.789856,50.7743583 C188.391342,50.7743583 187.216151,50.9171722 186.260973,51.2056977 C185.305587,51.4925674 184.591324,51.895551 184.119841,52.410095 C183.648357,52.924846 183.413857,53.5232156 183.413857,54.2008572 C183.413857,55.1887569 183.666985,55.9080008 184.170963,56.3608658 C184.676183,56.8110401 185.353812,57.0360237 186.202813,57.0360237 C186.699962,57.0360237 187.283625,56.8731331 187.953181,56.545696 C188.621496,56.2195007 189.233307,55.8274869 189.789649,55.3706894 Z M197.491722,57.0739004 L197.491722,38.8280785 L195.270906,38.6016461 L195.270906,37.6543138 L199.069474,37.2 L199.081686,37.2 L199.586906,37.554551 L199.586906,57.0859051 L202,57.2759097 L202,58.3877884 L195.20633,58.3877884 L195.20633,57.2759097 L197.491722,57.0739004 Z M0,0 L79.9180825,0 L79.9180825,30.7216 L74.7379016,30.7216 L74.7379016,5.1848 L5.17938177,5.1848 L5.17938177,74.814 L74.7379016,74.814 L74.7379016,65.0916 L79.9180825,65.0916 L79.9180825,80 L0,80 L0,0 Z M21,39.2 L25.8322639,39.2 L30.5814748,51.782729 L30.6367119,51.782729 L35.4681867,39.2 L40,39.2 L32.0744559,58.4 L28.6821061,58.4 L21,39.2 Z M44,39.2 L57,39.2 L57,43.145442 L48.2708062,43.145442 L48.2708062,47.092079 L56.3439628,47.092079 L56.3439628,51.038716 L48.2708062,51.038716 L48.2708062,58.6 L44,58.6 L44,39.2 Z M73.260676,48.9006316 L80,58.6 L74.3011686,58.6 L69.9116167,51.4182611 L65.6978752,58.6 L60.2012679,58.6 L66.8581808,48.9006316 L66.9414371,48.9006316 L60.2,39.2 L65.8994653,39.2 L70.2892285,46.3842651 L74.5048719,39.2 L80,39.2 L73.343721,48.9006316 L73.260676,48.9006316 Z" id="VFXF-R_Logo-WHITE" fill="#FFFFFF"></path>
    </g>
</svg>